<svg xmlns="http://www.w3.org/2000/svg" version="1.1" xmlns:xlink="http://www.w3.org/1999/xlink" xmlns:svgjs="http://svgjs.dev/svgjs" width="1000" height="750" viewBox="0 0 1000 750"><rect width="1000" height="750" fill="#1f0f53"></rect><g transform="matrix(0.5191111111111111,0,0,0.5191111111111111,240.4444825666667,83)"><svg viewBox="0 0 320 360" data-background-color="#1f0f53" preserveAspectRatio="xMidYMid meet" height="1125" width="1000" xmlns="http://www.w3.org/2000/svg" xmlns:xlink="http://www.w3.org/1999/xlink"><g id="tight-bounds" transform="matrix(1,0,0,1,0.000023499999997511622,0)"><svg viewBox="0 0 320 360" height="360" width="320"><g><svg></svg></g><g><svg viewBox="0 0 320 360" height="360" width="320"><g><path transform="translate(-74.99272,-51.79039) scale(4.65793,4.65793)" d="M20.6 59.9l0.8 1-0.4-1.3c-0.1-0.6-0.8 0.1-0.4 0.3M21.5 59.3c0.3 0.5 0.6 1 0.6 1.5 0 0.7 0.6 1 1.1 1.2-0.7-0.8-1.1-3-1.7-2.7M59.9 16.9c1.7 0 3.3-0.2 5.1 0.2 4.4 1.1 8.1 3.3 10.6 6.4l7 11.2c0.3 2.8 0.9 5.9 0.8 9.3 0.7 0 0.6-1 1.4-1.2-0.8 2-1.2 4.5-1.4 7.4-0.5-1.6 0-4 0.1-5.3-0.7 1.1-1.1 0.3-1.1-0.2 0.1-0.8-0.3-0.7-0.6-1-1.1-1-1.8-2.1-2.6-3.8 0.5-1.3 0.6-3.2-1-4.2-0.5-0.3-1.1-0.8-1.4-1.6-0.4-1.1-1.1-2.4-0.9-4.1 0.1-0.5-1.5 1.1-2.4 0.4-3.9-2.7-7.8-5.8-12.5-8.4-2.5 0-4.3-0.9-5.2-2-0.8-1-0.2-2.3 1-2.4 0.7 0 1.5-0.2 2.1 0.2 0.1-0.4 0.5-0.9 1-0.9M50 14.6l0.2 0.1c1 0.2 1.5 1.6 2.6 1.1 0 0.7 0.1 1.4-0.1 1.9-0.3 0.8-1.2 0.8-1.9 0.8-6.7-0.4-10.6 2.4-14.7 4.8-1.1 0.7-2.3 1.2-3.2 2.1-4.3 4-9 7.7-10.1 15.1l-0.9 8.2c-0.1 0.9-1.1 1.8-0.9 2.9l0.7 4.9c-0.7-0.7-1.1 0.2-0.9 0.6 0.1 0.3 0.5 1.3 1.1 0.4 0.8 1.5 1.6 4.4 2.7 5.7 3.4 4 7.8 7.6 11.4 11.2 0.9-0.2 1.6-0.2 1.8-0.8 0.3 0.6-0.3 1.2-0.8 1.3 1.6 1 3.4 1.9 5.8 2.1 3.1 0.2 6 0.7 8.7 1.4 1.4-0.4 2.8-0.6 4.3-0.7 0.5 0 0.8-0.8 1.4-1l0.1-1c0.6 0.9 0.5-0.3 0.1-0.9 0.7 0.6 0.9 1.1 1.2 1.5 0-0.3 0.8-1.4 0.8-0.1l0.2-1.3c0.3-0.2 0.4 1.1 0.7 0.2 0.3-0.9 0.9-0.2 1.5-0.5-0.2 0.4-0.1 1.2 0.6 0.7l0.8-0.7c0.5 1.2 1.3 0.7 1.7 0.5 4.4-2.8 8.8-6.1 13-9.4l-0.1 1.3 0.5-1.6c0.5 0.5 0.9 0.1 1.1-0.2 0.6-1 1.4-2 2.7-2.9-1.6 4.3-3.5 7.7-5.9 10.5l-1 1.2c0 0.7-0.2 1.6-1 1.7-0.4 0.1-1.2-0.2-1.8 0.4-0.3 0.4 0.7 1.2-0.1 0.6-0.7-0.5-1.4 0-2.2 0.2-0.6 0.2 0.4 0.8 0.6 1.2 0.2 0.4 0.4 0.8 0.3 1.3l-1.1-1.2c-1.3 0.7-2.1 2-3.2 3-0.5 0.4-0.3 1.1-0.3 1.7-0.7 0-1.5-0.2-1.9 0.2-0.3 0.4-0.2 1-0.2 1.6-1-0.1-1.1-1.6-2-1.3-0.9 0.2-1.9 0.3-2.7 0.8 0.6 1.2-1 0.5-0.8 0.7-1.5-0.9-2.8-1.6-4.4-1-3.4-1.1-7.6-0.6-10.7-0.2 0-0.5 0.1-1-0.1-1.1-0.2 0.5-0.8 0.3-0.7 0.3-1.9-1.3-3.8-2.1-5.8-3.2-1.8 0.2-3.5-0.7-4-1.2-1.4-1.3-3-0.6-4.3-0.9-2.8-0.7-3.8-3.6-4.1-5.6-0.2-1-1-1.4-1.3-1.3-1.3-4.2-3.3-8-4.9-11.9-0.4-1-0.3-2-0.3-3.1 0.5 0.2 1 0.1 0.9-0.6-0.5-3.3-1.7-5.8-3-8.2 0.7-3.4 0.8-7.4 2.4-10.4 1.4-2.7 4-4.1 5.8-6.4 0.6-0.8 0.6-1.9 1.2-2.6 2-2 4-4.1 6.2-5.9 1-0.8 2.2 0 3.7-0.3 0.5-1.8 2.5-3.4 4.4-2.9 0.8 0.2 2.4-1.9 2.9-2.1 0.8-0.3 0.4 0.8 0.4 1.5 1.9-1.5 4.5-2.3 6.9-3.2" fill="#ffdb99" fill-rule="nonzero" stroke="none" stroke-width="1" stroke-linecap="butt" stroke-linejoin="miter" stroke-miterlimit="10" stroke-dasharray="" stroke-dashoffset="0" font-family="none" font-weight="none" font-size="none" text-anchor="none" style="mix-blend-mode: normal" data-fill-palette-color="tertiary"></path></g><g transform="matrix(1,0,0,1,146.79214581353486,90)"><svg viewBox="0 0 26.415708372930286 180" height="180" width="26.415708372930286"><g><svg viewBox="0 0 43.250040000000006 294.7112789895027" height="180" width="26.415708372930286"><g transform="matrix(1,0,0,1,0,68.95959377759999)"><svg viewBox="0 0 43.250040000000006 225.7516852119027" height="225.7516852119027" width="43.250040000000006"><g id="textblocktransform"><svg viewBox="0 0 43.250040000000006 225.7516852119027" height="225.7516852119027" width="43.250040000000006" id="textblock"><g><svg viewBox="0 0 43.250040000000006 178.88760000000002" height="178.88760000000002" width="43.250040000000006"><g transform="matrix(1,0,0,1,0,0)"><svg width="43.250040000000006" viewBox="2.45 -38.4 9.55 39.5" height="178.88760000000002" data-palette-color="#ffdb99"><path d="M5.75 1.1Q4.85 1.1 4.38 1.03 3.9 0.95 3.35 0.7L3.35 0.7Q2.75 0.4 2.45-0.15L2.45-0.15Q2.45-0.75 3-0.75L3-0.75Q3.55-0.75 4.4-0.4L4.4-0.4Q5.2 0 5.75 0L5.75 0Q6.85 0 7.78-0.9 8.7-1.8 9.2-3.25L9.2-3.25Q10.2-6.1 10.2-8.3L10.2-8.3Q10.2-10.75 9.5-13.25 8.8-15.75 7.65-17.95L7.65-17.95Q7.4-18.5 6.8-19.6L6.8-19.6Q5.55-22.1 4.9-23.5 4.25-24.9 3.75-26.6L3.75-26.6Q3.05-28.85 3.05-31.45L3.05-31.45Q3.05-33.1 3.58-34.63 4.1-36.15 5.25-37.25L5.25-37.25Q6.5-38.4 8.05-38.4L8.05-38.4Q8.65-38.4 9.5-37.93 10.35-37.45 10.35-37L10.35-37Q10.35-36.6 10.05-36.6L10.05-36.6Q9.75-36.6 9.25-36.85L9.25-36.85Q8.8-37.1 8.4-37.1L8.4-37.1Q7.25-37.1 6.38-36.25 5.5-35.4 5.1-34.15L5.1-34.15Q4.75-33.1 4.75-31.85L4.75-31.85Q4.75-29.9 5.25-27.83 5.75-25.75 6.6-23.95L6.6-23.95 8.35-20.3 8.85-19.25Q9.9-17.1 10.48-15.7 11.05-14.3 11.45-12.55L11.45-12.55Q12-10.2 12-8.05L12-8.05Q12-5.15 10.5-2.15L10.5-2.15Q9.75-0.7 8.5 0.2 7.25 1.1 5.75 1.1L5.75 1.1Z" opacity="1" transform="matrix(1,0,0,1,0,0)" fill="#ffdb99" class="wordmark-text-0" data-fill-palette-color="primary" id="text-0"></path></svg></g></svg></g><g transform="matrix(1,0,0,1,0,221.11866905760002)"><svg viewBox="0 0 43.250040000000006 4.6330161543026716" height="4.6330161543026716" width="43.250040000000006"><g transform="matrix(1,0,0,1,0,0)"><svg width="43.250040000000006" viewBox="0.35 -37 505.5 54.15" height="4.6330161543026716" data-palette-color="#ff5db2"><path d="M17.55-31.25Q18.1-31.15 20-27.43 21.9-23.7 24.65-17.8L24.65-17.8 26.25-14.45Q27.3-15.6 28.2-17.13 29.1-18.65 30.45-21.25L30.45-21.25Q32-24.2 32.6-25.05L32.6-25.05Q35-28.7 37.8-32.8L37.8-32.8Q38.15-33.35 39.05-33.55L39.05-33.55Q39.2-33.6 39.55-33.6L39.55-33.6Q40.75-33.6 42.23-32.6 43.7-31.6 44.15-30.55L44.15-30.55Q44.25-30.35 44.25-29.8L44.25-29.8Q44.25-29.3 44.2-29.05L44.2-29.05Q44.1-28.6 43.98-27.93 43.85-27.25 43.75-26.35L43.75-26.35Q42.15-14.15 41.45-8.05L41.45-8.05Q41.25-6.65 41.25-4.9L41.25-4.9 41.15-3.3Q41.1-2.8 41.1-2.15 41.1-1.5 40.95-1.25 40.8-1 40.4-1L40.4-1Q40.1-1 39.5-1.15L39.5-1.15Q37.9-1.5 37.05-2.43 36.2-3.35 36.1-5L36.1-5Q36.05-5.85 36.05-7.65L36.05-7.65Q36.05-9.5 36.15-13.3L36.15-13.3 36.2-16.05 36.3-20Q35.85-19.6 34.02-16.88 32.2-14.15 30.45-11.2 28.7-8.25 28.15-6.65L28.15-6.65Q27.65-5.4 27.18-4.8 26.7-4.2 26.05-4.2L26.05-4.2Q25.45-4.2 24.5-4.75L24.5-4.75Q21.8-6.4 21.2-9.3L21.2-9.3Q20.25-13.75 18.85-18.55L18.85-18.55Q18.6-19.45 17.88-21 17.15-22.55 16.95-22.95L16.95-22.95 16.3-24.25Q9-14.55 6.4-6.45L6.4-6.45Q5.9-4.75 5.45-4.03 5-3.3 4.4-3.3L4.4-3.3Q3.45-3.3 1.7-5L1.7-5Q0.35-6.2 0.35-7.7L0.35-7.7Q0.35-8.5 0.65-9.3L0.65-9.3Q2.75-15.5 6.9-21.05L6.9-21.05 8.45-23.1Q11.6-27.25 13.2-29.6L13.2-29.6Q14.4-31.35 16.4-31.35L16.4-31.35Q16.75-31.35 17.55-31.25L17.55-31.25ZM62.45-18.6Q62.45-18.4 62.5-18.18 62.55-17.95 62.6-17.75L62.6-17.75Q63-17.7 63.8-17.7L63.8-17.7Q67.3-17.7 71-19.2L71-19.2Q72.05-19.6 72.75-19.6L72.75-19.6Q74.15-19.6 75.05-18.3L75.05-18.3Q75.5-17.6 75.5-17.1L75.5-17.1Q75.5-16.5 74.85-15.85L74.85-15.85Q72.85-14 70.6-13.75L70.6-13.75Q68.6-13.5 64.6-12.9L64.6-12.9 61.1-12.4Q60.3-10.65 60.3-9L60.3-9Q60.3-6.6 61.98-5.03 63.65-3.45 66.55-3.35L66.55-3.35Q69.5-3.3 74.1-3.75L74.1-3.75 74.85-3.8Q76.1-3.8 76.92-3.23 77.75-2.65 78.5-1.2L78.5-1.2Q77.95 0 76.95 0.43 75.95 0.85 74.35 1.05L74.35 1.05Q72.7 1.25 70.6 1.25L70.6 1.25Q66.05 1.25 62.4-0.2L62.4-0.2Q55.95-2.7 54.15-8.85L54.15-8.85Q53.9-9.7 53.9-10.68 53.9-11.65 53.9-11.85L53.9-11.85Q53.9-13.55 52.25-14.35L52.25-14.35Q50.9-15.1 50.17-15.8 49.45-16.5 49.25-17.9L49.25-17.9 54.9-18.25 57.45-25.6Q57.55-25.95 57.67-26.48 57.8-27 57.95-27.3L57.95-27.3Q58.4-28.3 58.4-28.95L58.4-28.95Q58.4-29.95 57.45-30.7L57.45-30.7Q57.1-30.95 56.88-31.63 56.65-32.3 56.45-32.7L56.45-32.7 57.55-33.05Q58.35-33.25 58.7-33.4L58.7-33.4Q58.9-33.5 59.55-33.77 60.2-34.05 60.3-34.4L60.3-34.4Q60.65-35.25 61.17-35.55 61.7-35.85 62.45-35.85L62.45-35.85Q62.95-35.85 63.95-35.75L63.95-35.75Q64.25-35.75 64.58-35.63 64.9-35.5 65.1-35.3L65.1-35.3Q66.25-34.1 67.65-33.7 69.05-33.3 70.95-33.3L70.95-33.3 73.1-33.3 77.3-33.3Q81.55-33.3 83.65-33.2L83.65-33.2Q84.75-33.15 86.45-32.25L86.45-32.25Q86.75-32.1 86.93-31.68 87.1-31.25 87.1-30.85L87.1-30.85Q87.1-30.65 86.75-30.38 86.4-30.1 86.1-30L86.1-30Q82.7-29.1 80.95-28.95L80.95-28.95Q78.25-28.7 72.85-28.3L72.85-28.3Q71.6-28.25 68.85-28.05L68.85-28.05Q68.65-28.05 68.15-28.18 67.65-28.3 67.4-28.3L67.4-28.3Q65.55-28.3 65.05-26.75L65.05-26.75Q63.7-22.75 62.5-18.8L62.5-18.8 62.45-18.6ZM117.35-4.8Q117.5-4.3 117.5-3.85L117.5-3.85Q117.5-3.05 117.02-2.58 116.55-2.1 115.75-2.1L115.75-2.1Q115.45-2.1 115.25-2.15L115.25-2.15Q113-2.65 111.7-3.25L111.7-3.25Q110.7-3.7 108-5.5L108-5.5Q105.95-6.85 104.6-7.6L104.6-7.6Q102.85-8.55 100.85-8.9L100.85-8.9Q99.95-9.05 96.6-9.4L96.6-9.4Q95.1-9.5 94.4-9.6L94.4-9.6 93.5-2.2 93.55-1.4Q93.55 0.4 93.13 1 92.7 1.6 91.4 1.6L91.4 1.6Q90.05 1.6 89.05 0.75 88.05-0.1 88.05-1.35L88.05-1.35Q88.05-5.15 88.45-8.1L88.45-8.1Q89.85-17.15 94.9-26.9L94.9-26.9Q97.75-32.35 103.65-35.3L103.65-35.3Q105.55-36.25 107.5-36.25L107.5-36.25Q109.5-36.25 111.22-35.23 112.95-34.2 114.1-32.25L114.1-32.25Q115.15-30.5 115.15-28.85L115.15-28.85Q115.15-26.55 113.35-24.2L113.35-24.2Q111.2-21.4 107.25-16.25L107.25-16.25 104-12.05Q104.05-12.05 104.13-11.93 104.2-11.8 104.3-11.7L104.3-11.7 105.4-11.1Q109.55-8.85 111.5-7.55L111.5-7.55Q113.4-6.4 115.55-6.4L115.55-6.4Q116.2-6.4 116.55-6.45L116.55-6.45Q116.7-6.2 116.95-5.7 117.2-5.2 117.35-4.8L117.35-4.8ZM98.85-14.7Q100.9-17 102.97-19.5 105.05-22 106.65-24.2L106.65-24.2Q107.3-25.1 107.75-26.13 108.2-27.15 108.57-28.2 108.95-29.25 109.1-29.7L109.1-29.7Q109.15-29.85 109.15-30.2L109.15-30.2Q109.15-30.6 109.05-31.2 108.95-31.8 108.9-32.05L108.9-32.05Q105.25-30.95 102.25-27.55 99.25-24.15 97.52-20 95.8-15.85 95.75-12.85L95.75-12.85Q96.75-12.75 97.32-13.2 97.9-13.65 98.85-14.7L98.85-14.7ZM127.8-24.65Q127.6-26.45 128.32-27.93 129.05-29.4 130.4-30.8L130.4-30.8 133.45-31.05Q134.15-31.15 134.3-31.15L134.3-31.15Q135.05-31.15 136.2-29.3L136.2-29.3Q136.3-29 136.4-28.58 136.5-28.15 136.7-27.9L136.7-27.9 142.5-19.85Q143.8-18.2 145.05-16.4L145.05-16.4 145.9-19.15Q147.5-24.4 148.82-27.68 150.15-30.95 152.3-33.9L152.3-33.9 154.7-33.55Q155.65-32.8 155.35-31.55L155.35-31.55Q154.9-29.75 154.4-28.85L154.4-28.85Q153.2-25.8 152.4-22.68 151.6-19.55 150.6-14.8L150.6-14.8Q150.45-14.15 150.2-12.85L150.2-12.85Q149.8-10.85 148.65-9.88 147.5-8.9 145.5-8.8L145.5-8.8Q143.5-8.7 142.05-10.45L142.05-10.45Q140.55-12.25 138.3-15.3L138.3-15.3 137.3-16.65Q135.95-18.45 133.2-21.95L133.2-21.95 132.75-19.8Q132-16.2 131.85-14.15L131.85-14.15 131.55-8.1Q131.5-7.1 131.45-5.58 131.4-4.05 131.25-2L131.25-2Q131.2-0.5 130.22 0.6 129.25 1.7 127.8 2.1L127.8 2.1Q127.05 2.3 125.97 1.73 124.9 1.15 124.7 0.4L124.7 0.4Q124.35-0.9 124.35-1.9L124.35-1.9Q124.35-2.8 124.6-3.5L124.6-3.5Q125.05-4.7 125.2-7.3L125.2-7.3Q125.3-8.9 125.45-9.7L125.45-9.7Q126.1-14.3 127.45-22.4L127.45-22.4Q127.5-22.8 127.67-23.48 127.85-24.15 127.8-24.65L127.8-24.65ZM191.3-35.6Q192.55-35.1 192.55-34.2L192.55-34.2Q192.55-33.3 191.3-31.9L191.3-31.9Q190.75-31.95 189.7-31.95L189.7-31.95Q187.4-31.95 185.3-31.33 183.2-30.7 180.95-29.4L180.95-29.4Q179.9-28.75 179.15-27.75L179.15-27.75Q178.6-27.15 178.6-26.35L178.6-26.35Q178.6-25 180.1-23.75L180.1-23.75Q181.55-22.25 184.85-18.3L184.85-18.3 186-17.1Q188.45-14.45 189.88-12.6 191.3-10.75 192.3-8.35L192.3-8.35Q192.7-7.3 192.7-6.45L192.7-6.45Q192.7-4.3 191.05-2.5L191.05-2.5Q189.15-0.4 186.65 0.58 184.15 1.55 181 1.8L181 1.8Q180.6 1.85 180.05 1.9 179.5 1.95 178.8 1.95L178.8 1.95Q178.35 1.95 177.45 1.85L177.45 1.85Q176.35 1.9 175.15 1.48 173.95 1.05 172.95 0.25L172.95 0.25Q171.05-1.35 171.05-3.3L171.05-3.3Q171.05-4.95 172.45-6.65L172.45-6.65Q173.15-6.55 173.28-6.23 173.4-5.9 173.33-5.5 173.25-5.1 173.25-4.85L173.25-4.85Q173.25-4.7 173.35-4.4L173.35-4.4Q175.3-3.5 178-3.5L178-3.5Q181-3.5 183.68-4.53 186.35-5.55 186.95-7.05L186.95-7.05Q187.3-8.05 185.25-10.58 183.2-13.1 180.65-15.5L180.65-15.5Q178.25-17.65 176.3-19.75L176.3-19.75Q175.2-20.95 174.58-22.53 173.95-24.1 173.95-25.8L173.95-25.8Q173.95-28.1 175.13-30.15 176.3-32.2 178.65-33.5L178.65-33.5Q183.15-36.05 187.85-36.05L187.85-36.05Q188.5-36.05 189.7-35.95L189.7-35.95Q190.8-35.85 191.3-35.6L191.3-35.6ZM196.9-18.65Q196.55-19.05 196.43-19.5 196.3-19.95 196.2-20.75L196.2-20.75Q196.65-21.8 197.85-21.8L197.85-21.8Q198.45-21.7 198.7-21.7L198.7-21.7Q199.7-21.7 199.95-22.3 200.2-22.9 200.2-23.7 200.2-24.5 200.2-24.95L200.2-24.95 200.35-27.95Q200.4-28.95 200.48-30.43 200.55-31.9 200.65-33.85L200.65-33.85Q200.7-34.9 201.18-35.4 201.65-35.9 202.5-35.9L202.5-35.9Q203.1-35.9 203.45-35.8L203.45-35.8Q205.5-35.35 206.2-34.5 206.9-33.65 207.15-31.95L207.15-31.95Q207.2-31.6 207.05-30.5L207.05-30.5 206.15-22.7Q206.1-22.4 206-21.98 205.9-21.55 205.9-21.35L205.9-21.35Q205.9-20.9 206.4-20.75 206.9-20.6 208.25-20.65L208.25-20.65Q210.55-21.15 211.75-21.3L211.75-21.3Q212-21.35 212.55-21.35L212.55-21.35Q213.15-21.35 213.35-21.2L213.35-21.2Q213.55-21.1 213.68-20.63 213.8-20.15 213.8-19.55L213.8-19.55Q213.8-19 213.68-18.55 213.55-18.1 213.35-18.05L213.35-18.05Q212-17.65 210.15-17.4L210.15-17.4Q207.95-17 206.9-16.7L206.9-16.7Q206.35-16.55 205.8-15.95 205.25-15.35 205.2-14.85L205.2-14.85Q205.1-12.4 205.05-9.85L205.05-9.85Q205-7.9 205.2-5.95L205.2-5.95Q205.35-4.3 205.85-3.58 206.35-2.85 207.35-2.85L207.35-2.85Q208.15-2.85 209.65-3.4L209.65-3.4Q210.45-3.75 211.05-3.75L211.05-3.75Q212-3.75 212.4-2.7L212.4-2.7Q212.55-2.35 212.55-2L212.55-2Q212.55-1.35 212.08-0.95 211.6-0.55 210.8-0.25L210.8-0.25Q209.3 0.3 207.75 0.35L207.75 0.35Q205.65 0.35 203.8-0.68 201.95-1.7 200.88-3.55 199.8-5.4 199.95-7.8L199.95-7.8Q200-8.75 200-10.8L200-10.8Q200-14.05 199.75-17.4L199.75-17.4Q199.7-17.7 199.4-17.82 199.1-17.95 198.4-18.1L198.4-18.1Q197.25-18.3 196.9-18.65L196.9-18.65ZM232.95-2.55Q232.5-2.75 232.05-2.75L232.05-2.75Q231.6-2.75 231.28-2.53 230.95-2.3 230.55-1.85L230.55-1.85Q229.95-1.25 229.3-0.85L229.3-0.85Q228.7-0.5 227.1-0.2L227.1-0.2Q226.4-0.1 225.95-0.1L225.95-0.1Q223.85-0.1 221.58-1.03 219.3-1.95 218.35-3.25L218.35-3.25Q217.35-4.65 217.4-6.25L217.4-6.25Q217.45-8.65 219.4-11.05L219.4-11.05Q221.3-13.35 222.88-14.3 224.45-15.25 227.2-15.5L227.2-15.5Q227.8-15.5 228.93-15.7 230.05-15.9 230.05-16.25L230.05-16.25Q230.05-16.95 229.43-17.53 228.8-18.1 226.9-18.1L226.9-18.1Q226.2-18.1 224.8-18L224.8-18Q223.4-17.9 222.85-17.9L222.85-17.9Q221.15-17.9 220.4-18.45L220.4-18.45Q220.2-18.55 220.2-19.4L220.2-19.4Q220.2-20.9 221.25-21.3L221.25-21.3Q223.4-22.1 225.7-22.15L225.7-22.15Q228.6-22.15 231.08-20.88 233.55-19.6 234.7-17.7L234.7-17.7Q235.85-15.8 236.2-12.45L236.2-12.45Q236.6-8.7 236.6-2.9L236.6-2.9Q236.6-1.3 236.15-1.05L236.15-1.05Q235.75-0.8 235.4-0.8L235.4-0.8Q234.95-0.8 234.58-1.07 234.2-1.35 233.75-1.85L233.75-1.85Q233.3-2.4 232.95-2.55L232.95-2.55ZM225.05-3.15Q227.4-3.85 229.65-5.4L229.65-5.4Q230.15-5.75 230.55-6.3 230.95-6.85 231.05-7L231.05-7Q231.15-7.15 231.23-7.88 231.3-8.6 231.25-9.05L231.25-9.05Q231.2-9.2 231.08-9.85 230.95-10.5 230.7-11L230.7-11Q230.45-11.4 229.9-11.75 229.35-12.1 228.9-12.05L228.9-12.05Q227.95-12 226.85-11.35 225.75-10.7 224.8-9.6L224.8-9.6Q223.85-8.45 223.33-7.28 222.8-6.1 222.8-5.1L222.8-5.1Q222.9-3.75 223.55-3.3L223.55-3.3Q223.9-3.05 224.4-3.05L224.4-3.05Q224.8-3.05 225.05-3.15L225.05-3.15ZM260.55-5.1Q259.05-3.4 257.5-2.43 255.95-1.45 254.05-1.45L254.05-1.45Q253.65-1.45 252.95-1.55L252.95-1.55 251.95-1.5Q245.65-1.45 242.75-7.5L242.75-7.5Q242.1-8.9 242.1-10.85L242.1-10.85Q242.1-12.55 242.6-14.1 243.1-15.65 244-16.65L244-16.65 244.95-17.8Q245.65-18.7 246.05-19.05L246.05-19.05Q247.8-20.75 250.7-20.75L250.7-20.75Q252.2-20.75 253.65-20.25 255.1-19.75 256.2-18.9L256.2-18.9Q256.4-18.75 256.6-18.28 256.8-17.8 256.8-17.5L256.8-17.5Q256.8-17.1 256.2-16.63 255.6-16.15 255.1-16.2L255.1-16.2Q251.7-16.6 249.65-14.58 247.6-12.55 247.6-9.05L247.6-9.05Q247.6-6.75 248.58-5.8 249.55-4.85 251.8-4.85L251.8-4.85Q253.2-4.85 254.45-5.43 255.7-6 257.35-7.05L257.35-7.05 258.3-7.65Q258.8-7.9 259.63-7.98 260.45-8.05 260.9-8.1L260.9-8.1Q260.85-7.65 260.88-7.23 260.9-6.8 260.9-6.55L260.9-6.55Q260.9-5.45 260.55-5.1L260.55-5.1ZM270.95-22.45Q270.95-22.2 270.83-21.28 270.7-20.35 270.7-19.8L270.7-19.8Q270.7-19.4 270.8-19.3L270.8-19.3 272.25-20.7Q273.05-21.6 273.65-22.1L273.65-22.1Q274.95-23.3 276.3-23.3L276.3-23.3Q277.4-23.3 277.95-22.45L277.95-22.45Q278.25-21.95 278.25-21.3L278.25-21.3Q278.25-20.8 278.05-20.55L278.05-20.55Q277.3-19.4 275.35-17.1L275.35-17.1Q274.6-16.3 274.6-15.55L274.6-15.55Q274.6-14.85 275.3-14L275.3-14Q275.9-13.3 277-11.9L277-11.9Q279.15-9.15 280.83-7.48 282.5-5.8 284.7-4.7L284.7-4.7Q284.95-4.6 285.1-4.23 285.25-3.85 285.2-3.65L285.2-3.65Q285.15-3.4 284.8-3.15 284.45-2.9 284.2-2.95L284.2-2.95Q283.45-3.15 282.95-3.2L282.95-3.2Q280.35-3.7 279.25-4.45L279.25-4.45Q277.45-5.7 274.15-8.8L274.15-8.8Q272.15-10.65 272.1-10.7L272.1-10.7 271.2-11.55Q270.15-12.6 270.15-12.6L270.15-12.6Q270.05-12.35 270.05-11.85L270.05-11.85Q270.05-11.4 270.13-10.88 270.2-10.35 270.15-10.15L270.15-10.15Q269.85-4.55 269.75-1.95L269.75-1.95Q269.65-0.3 268.98 0.55 268.3 1.4 267.1 1.2L267.1 1.2Q266.7 1.15 266.23 0.8 265.75 0.45 265.65 0.1L265.65 0.1Q265.1-2.1 265.1-4.2L265.1-4.2Q265.1-10.25 265.25-16.25L265.25-16.25 265.75-32.55Q265.8-35.2 268.5-35.2L268.5-35.2Q270.35-35.2 271.2-34.5 272.05-33.8 271.95-32.3L271.95-32.3 271.45-27.2Q271.25-25.45 270.95-22.45L270.95-22.45ZM306.95-31.65Q307-31.6 305.7-32.75L305.7-32.75Q304.8-33.55 304.35-33.9L304.35-33.9Q304.55-35.25 305.35-35.8 306.15-36.35 307.45-36.65L307.45-36.65Q308.8-37 310.35-37L310.35-37Q311.85-37 313.4-36.7L313.4-36.7Q317.85-35.9 321.25-34.85 324.65-33.8 327.6-31.9L327.6-31.9Q329.65-30.65 331.05-28.95L331.05-28.95Q333.1-26.3 333.1-23.55L333.1-23.55Q333.1-21.2 331.55-18.7L331.55-18.7Q325.65-9.35 319.4-3.95L319.4-3.95Q315.6-0.6 311 1.55L311 1.55Q309.3 2.4 307.45 2.4L307.45 2.4Q305.25 2.4 303.2 1.15L303.2 1.15Q302.45 0.65 302.05 0.13 301.65-0.4 301.65-1.1L301.65-1.1 301.7-1.55 302.05-4.15Q302.65-8.75 303.15-11L303.15-11 303.4-12.1Q304.9-18.6 305.65-22.58 306.4-26.55 306.75-30.75L306.75-30.75 306.95-31.65ZM313.55-32.25Q312.95-32.3 311.95-32.15L311.95-32.15 310.85-32Q312.05-31 312.6-30.25 313.15-29.5 313.15-28.65L313.15-28.65Q313.15-28.45 313.05-27.95L313.05-27.95Q312.4-25.05 311.3-20.8L311.3-20.8 309.5-13.6Q308.3-8.7 307.4-4.5L307.4-4.5Q307.25-3.95 307.23-3.28 307.2-2.6 307.2-2.3L307.2-2.3Q307.65-2.1 307.7-2.1L307.7-2.1 308.35-2.35Q315.85-6 321.15-12.55L321.15-12.55Q323.3-15.3 324.78-17.75 326.25-20.2 327-22.9L327-22.9Q327.2-23.55 327.2-24.45L327.2-24.45Q327.2-26 326.43-27.25 325.65-28.5 324.3-29.15L324.3-29.15Q319.3-31.4 313.55-32.25L313.55-32.25ZM344.7-7.8Q344.2-7.5 343.25-7.5L343.25-7.5Q342.9-7.5 342.4-7.55 341.9-7.6 341.55-7.55L341.55-7.55Q341.95-5.9 343.45-4.88 344.95-3.85 346.8-3.85L346.8-3.85Q348.4-3.85 349.65-4.55L349.65-4.55Q351.5-5.5 352.85-6.8L352.85-6.8Q353.8-7.75 354.65-7.75L354.65-7.75Q355.2-7.75 355.6-7.2L355.6-7.2Q356-6.55 356-5.6L356-5.6Q356-4.6 355.6-4.05L355.6-4.05Q354.3-2.05 352.23-1.3 350.15-0.55 347.4-0.55L347.4-0.55Q344.55-0.55 341.9-1.8 339.25-3.05 337.38-5.23 335.5-7.4 334.9-10.05L334.9-10.05Q334.5-11.6 334.5-13.1L334.5-13.1Q334.5-15.45 335.83-16.9 337.15-18.35 340.1-19.65L340.1-19.65Q342.8-20.8 345.1-20.8L345.1-20.8Q346.75-20.8 348.3-20.3L348.3-20.3Q353.1-18.8 353.1-16.2L353.1-16.2Q353.1-14.55 351.15-12.2L351.15-12.2Q350.2-11.1 348.9-10.25 347.6-9.4 346.38-8.72 345.15-8.05 344.7-7.8L344.7-7.8ZM346.8-17.05Q346.75-17.3 346.43-17.48 346.1-17.65 346.05-17.7L346.05-17.7Q344.7-17.8 343.3-16.93 341.9-16.05 340.98-14.7 340.05-13.35 340.05-12.1L340.05-12.1 340.1-11.7Q340.15-11.5 340.63-11.2 341.1-10.9 341.2-11L341.2-11Q344.75-13.65 346.55-15.25L346.55-15.25Q346.85-15.55 346.85-16.35L346.85-16.35Q346.85-16.85 346.8-17.05L346.8-17.05ZM366.75-10.95Q366.95-10.55 367.2-9.65L367.2-9.65Q367.75-7.95 367.85-7.75L367.85-7.75Q368.9-9.65 369.8-11.5L369.8-11.5Q371.25-14.5 372.05-15.7L372.05-15.7Q373.5-17.9 375.5-19.6L375.5-19.6Q375.9-20 376.45-20L376.45-20Q376.95-20 377.27-19.6 377.6-19.2 377.7-18.6L377.7-18.6Q377.75-18.4 377.75-17.95L377.75-17.95Q377.75-16.85 377.35-15.75L377.35-15.75Q376.6-13.8 373.65-6.2L373.65-6.2 371.5-0.65Q371.05 0.6 370.07 1.28 369.1 1.95 368 1.95L368 1.95Q366.35 1.95 365.1 0.55L365.1 0.55Q364.35-0.35 363.55-2.55L363.55-2.55Q361.25-9.6 359.7-14.65L359.7-14.65Q359.55-15.05 359.27-15.68 359-16.3 359-16.7L359-16.7Q359-17.4 359.75-17.95L359.75-17.95Q360.5-18.5 361.35-18.5L361.35-18.5Q362.3-18.5 363.7-17.55L363.7-17.55Q364.7-16.8 365.15-15.85 365.6-14.9 366-13.35L366-13.35Q366.4-11.75 366.75-10.95L366.75-10.95ZM390.85-7.8Q390.35-7.5 389.4-7.5L389.4-7.5Q389.05-7.5 388.55-7.55 388.05-7.6 387.7-7.55L387.7-7.55Q388.1-5.9 389.6-4.88 391.1-3.85 392.95-3.85L392.95-3.85Q394.55-3.85 395.8-4.55L395.8-4.55Q397.65-5.5 399-6.8L399-6.8Q399.95-7.75 400.8-7.75L400.8-7.75Q401.35-7.75 401.75-7.2L401.75-7.2Q402.15-6.55 402.15-5.6L402.15-5.6Q402.15-4.6 401.75-4.05L401.75-4.05Q400.45-2.05 398.38-1.3 396.3-0.55 393.55-0.55L393.55-0.55Q390.7-0.55 388.05-1.8 385.4-3.05 383.52-5.23 381.65-7.4 381.05-10.05L381.05-10.05Q380.65-11.6 380.65-13.1L380.65-13.1Q380.65-15.45 381.98-16.9 383.3-18.35 386.25-19.65L386.25-19.65Q388.95-20.8 391.25-20.8L391.25-20.8Q392.9-20.8 394.45-20.3L394.45-20.3Q399.25-18.8 399.25-16.2L399.25-16.2Q399.25-14.55 397.3-12.2L397.3-12.2Q396.35-11.1 395.05-10.25 393.75-9.4 392.52-8.72 391.3-8.05 390.85-7.8L390.85-7.8ZM392.95-17.05Q392.9-17.3 392.57-17.48 392.25-17.65 392.2-17.7L392.2-17.7Q390.85-17.8 389.45-16.93 388.05-16.05 387.13-14.7 386.2-13.35 386.2-12.1L386.2-12.1 386.25-11.7Q386.3-11.5 386.77-11.2 387.25-10.9 387.35-11L387.35-11Q390.9-13.65 392.7-15.25L392.7-15.25Q393-15.55 393-16.35L393-16.35Q393-16.85 392.95-17.05L392.95-17.05ZM410.9-2.3Q411.9-3.5 412.35-4.2L412.35-4.2Q412.9-4.95 413.5-4.95L413.5-4.95Q414.1-4.95 414.4-4.2L414.4-4.2Q415.1-2.2 415.1-1.05L415.1-1.05Q415.1-0.55 415.05-0.3L415.05-0.3Q414.85 0.7 413.92 1.1 413 1.5 411.75 1.4L411.75 1.4Q411.3 1.4 410.22 1.4 409.15 1.4 408.38 1.1 407.6 0.8 407 0.1L407 0.1Q405.7-1.45 405.7-2.9L405.7-2.9Q405.7-14.6 405.6-20.5L405.6-20.5 405.55-29.3Q405.55-31.05 405.2-32.5L405.2-32.5Q405.15-32.75 405.15-33.1L405.15-33.1Q405.15-34.95 407.65-34.95L407.65-34.95Q409.3-34.95 410.42-33.88 411.55-32.8 411.45-31.05L411.45-31.05Q411.3-28.4 411.05-23.1L411.05-23.1 410.75-17.1Q410.35-8.6 410.2-4.35L410.2-4.35Q410.15-3.85 410.25-3.25 410.35-2.65 410.4-2.5L410.4-2.5 410.9-2.3ZM429.6-3.35Q428.05-2.4 426.05-2.4L426.05-2.4Q423.85-2.4 421.82-3.53 419.8-4.65 418.6-6.75 417.4-8.85 417.6-11.55L417.6-11.55 417.85-12.75Q418.15-14.55 418.35-15.4L418.35-15.4Q418.8-17.25 420.15-18 421.5-18.75 423.75-19.2L423.75-19.2Q425.2-19.5 426.6-19.5L426.6-19.5Q431-19.5 434-16.55L434-16.55Q435.6-14.95 435.6-12.65L435.6-12.65Q435.6-10.4 433.95-7.8L433.95-7.8Q432.05-4.85 429.6-3.35L429.6-3.35ZM425.4-16.95Q424.6-15 423.7-12.1L423.7-12.1 423.2-10.6 423.55-10.45Q423.55-10.1 423.57-9.38 423.6-8.65 423.75-8.15L423.75-8.15Q424.3-6.6 425-6.25L425-6.25Q425.3-6.1 425.88-6.4 426.45-6.7 426.9-7.1L426.9-7.1Q427.6-7.7 429.15-9.6L429.15-9.6Q430.3-10.9 430.3-12.7L430.3-12.7Q430.3-14.25 429.42-15.5 428.55-16.75 427-17.2L427-17.2Q426.85-17.25 426.45-17.25L426.45-17.25Q425.5-17.25 425.4-16.95L425.4-16.95ZM451.55-4Q450.05-2.4 448.3-2.4L448.3-2.4Q446.85-2.4 445.25-3.35L445.25-3.35 445.1 1.2Q444.85 6.2 444.85 9.9L444.85 9.9Q444.85 10.6 444.95 12.1L444.95 12.1Q445.05 13.6 445.05 14.3L445.05 14.3Q445.05 15.05 445 15.4L445 15.4Q444.95 15.85 444.4 16.38 443.85 16.9 443.3 17.05L443.3 17.05Q442.9 17.15 442.75 17.15L442.75 17.15Q441.6 17.15 440.52 16.15 439.45 15.15 439.5 14.05L439.5 14.05Q439.6 10.3 439.9 3.2L439.9 3.2 440.25-7.7Q440.35-10.7 439.9-12.75L439.9-12.75Q439.8-13.35 439.8-13.55L439.8-13.55Q439.8-14.35 440.27-14.8 440.75-15.25 441.55-15.35L441.55-15.35Q442.8-15.45 443.55-16.03 444.3-16.6 445.3-17.85L445.3-17.85Q447.1-20.1 449.25-20.1L449.25-20.1Q451.65-20.1 454.7-17.15L454.7-17.15Q456.1-15.8 456.1-13.5L456.1-13.5Q456.1-12.65 455.95-11.8L455.95-11.8Q455.6-9.7 454.48-7.9 453.35-6.1 451.55-4L451.55-4ZM446.9-12.35Q445.8-9.35 445.8-7L445.8-7Q445.8-6.45 445.85-6.2L445.85-6.2 446.45-5.9Q447.45-6.2 448.55-7.65 449.65-9.1 450.38-10.93 451.1-12.75 451.1-14.15L451.1-14.15Q451.1-14.75 450.85-15.35L450.85-15.35Q450.5-16 449.8-16L449.8-16Q448.9-16 448.5-15.35L448.5-15.35Q448.35-15.15 447.8-14.25 447.25-13.35 446.9-12.35L446.9-12.35ZM470.2-7.8Q469.7-7.5 468.75-7.5L468.75-7.5Q468.4-7.5 467.9-7.55 467.4-7.6 467.05-7.55L467.05-7.55Q467.45-5.9 468.95-4.88 470.45-3.85 472.3-3.85L472.3-3.85Q473.9-3.85 475.15-4.55L475.15-4.55Q477-5.5 478.35-6.8L478.35-6.8Q479.3-7.75 480.15-7.75L480.15-7.75Q480.7-7.75 481.1-7.2L481.1-7.2Q481.5-6.55 481.5-5.6L481.5-5.6Q481.5-4.6 481.1-4.05L481.1-4.05Q479.8-2.05 477.73-1.3 475.65-0.55 472.9-0.55L472.9-0.55Q470.05-0.55 467.4-1.8 464.75-3.05 462.88-5.23 461-7.4 460.4-10.05L460.4-10.05Q460-11.6 460-13.1L460-13.1Q460-15.45 461.33-16.9 462.65-18.35 465.6-19.65L465.6-19.65Q468.3-20.8 470.6-20.8L470.6-20.8Q472.25-20.8 473.8-20.3L473.8-20.3Q478.6-18.8 478.6-16.2L478.6-16.2Q478.6-14.55 476.65-12.2L476.65-12.2Q475.7-11.1 474.4-10.25 473.1-9.4 471.88-8.72 470.65-8.05 470.2-7.8L470.2-7.8ZM472.3-17.05Q472.25-17.3 471.93-17.48 471.6-17.65 471.55-17.7L471.55-17.7Q470.2-17.8 468.8-16.93 467.4-16.05 466.48-14.7 465.55-13.35 465.55-12.1L465.55-12.1 465.6-11.7Q465.65-11.5 466.13-11.2 466.6-10.9 466.7-11L466.7-11Q470.25-13.65 472.05-15.25L472.05-15.25Q472.35-15.55 472.35-16.35L472.35-16.35Q472.35-16.85 472.3-17.05L472.3-17.05ZM491-21.2Q491.15-20.7 491.05-19.65L491.05-19.65 490.45-13.75Q490.7-13.95 491.2-15.18 491.7-16.4 492.15-17.18 492.6-17.95 492.85-18.2L492.85-18.2Q495.2-20.45 498.15-20.9 501.1-21.35 504.65-21.3L504.65-21.3Q505-21.3 505.42-21.03 505.85-20.75 505.85-20.58 505.85-20.4 505.55-20.03 505.25-19.65 505-19.55L505-19.55Q502-18.55 499.72-17.25 497.45-15.95 495.8-13.85L495.8-13.85Q491.9-8.9 491.3-3.65L491.3-3.65Q491.15-2.25 490.45-1.78 489.75-1.3 488.5-1.3L488.5-1.3Q487.1-1.3 486-2.5 484.9-3.7 484.9-5.15L484.9-5.15Q484.95-10.45 484.95-21.05L484.95-21.05Q484.95-22.5 485.6-23.08 486.25-23.65 487.95-23.65L487.95-23.65Q489.2-23.65 490.07-22.95 490.95-22.25 491-21.2L491-21.2Z" opacity="1" transform="matrix(1,0,0,1,0,0)" fill="#ff5db2" class="slogan-text-1" data-fill-palette-color="secondary" id="text-1"></path></svg></g></svg></g></svg></g></svg></g><g transform="matrix(1,0,0,1,8.260757640000001,0)"><svg viewBox="0 0 26.728524720000003 26.728524719999996" height="26.728524719999996" width="26.728524720000003"><g><svg></svg></g><g id="icon-0"><svg viewBox="0 0 26.728524720000003 26.728524719999996" height="26.728524719999996" width="26.728524720000003"><g><path transform="scale(0.26729,0.26729)" d="M30 100c-16.569 0-30-13.431-30-30v-40c0-16.569 13.431-30 30-30h40c16.569 0 30 13.431 30 30v40c0 16.569-13.431 30-30 30z" fill="#ff5db2" fill-rule="nonzero" stroke="none" stroke-width="1" stroke-linecap="butt" stroke-linejoin="miter" stroke-miterlimit="10" stroke-dasharray="" stroke-dashoffset="0" font-family="none" font-weight="none" font-size="none" text-anchor="none" style="mix-blend-mode: normal" data-fill-palette-color="accent"></path></g><g transform="matrix(1,0,0,1,8.253656410550533,5.345704943999998)"><svg viewBox="0 0 10.221211898898934 16.037114832" height="16.037114832" width="10.221211898898934"><g><svg xmlns="http://www.w3.org/2000/svg" xmlns:xlink="http://www.w3.org/1999/xlink" version="1.1" x="0" y="0" viewBox="26.026999841231916 12.385 47.947000317536165 75.229" enable-background="new 0 0 100 100" xml:space="preserve" height="16.037114832" width="10.221211898898934" class="icon-z$-0" data-fill-palette-color="quaternary" id="z$-0"><g fill="#1f0f53" data-fill-palette-color="quaternary"><path fill="#1f0f53" d="M36.555 66.559c-5.805 0-10.527 4.723-10.527 10.528 0 5.805 4.723 10.527 10.527 10.527s10.527-4.723 10.527-10.527C47.082 71.282 42.359 66.559 36.555 66.559z" data-fill-palette-color="quaternary"></path><path fill="#1f0f53" d="M36.555 61.232c5.805 0 10.527-4.723 10.527-10.527 0-5.806-4.723-10.528-10.527-10.528-5.806 0-10.528 4.723-10.528 10.528C26.026 56.509 30.749 61.232 36.555 61.232z" data-fill-palette-color="quaternary"></path><path fill="#1f0f53" d="M63.447 12.385c-5.806 0-10.528 4.723-10.528 10.528 0 5.805 4.723 10.527 10.528 10.527 5.805 0 10.527-4.723 10.527-10.527C73.975 17.108 69.252 12.385 63.447 12.385z" data-fill-palette-color="quaternary"></path><path fill="#1f0f53" d="M63.446 44.926c-2.603 0-4.721 2.117-4.721 4.72 0 2.604 2.118 4.722 4.721 4.722s4.721-2.118 4.721-4.722C68.167 47.043 66.049 44.926 63.446 44.926z" data-fill-palette-color="quaternary"></path><path fill="#1f0f53" d="M36.451 27.634c2.604 0 4.721-2.118 4.721-4.722 0-2.603-2.117-4.72-4.721-4.72-2.603 0-4.721 2.117-4.721 4.72C31.73 25.516 33.849 27.634 36.451 27.634z" data-fill-palette-color="quaternary"></path><path fill="#1f0f53" d="M63.446 71.309c-2.603 0-4.721 2.117-4.721 4.72 0 2.604 2.118 4.722 4.721 4.722s4.721-2.118 4.721-4.722C68.167 73.426 66.049 71.309 63.446 71.309z" data-fill-palette-color="quaternary"></path></g></svg></g></svg></g></svg></g></svg></g><g></g></svg></g></svg></g></svg></g><defs></defs></svg><rect width="320" height="360" fill="none" stroke="none" visibility="hidden"></rect></g></svg></g></svg>