<?xml version="1.0" standalone="no"?>
<!DOCTYPE svg PUBLIC "-//W3C//DTD SVG 20010904//EN"
 "http://www.w3.org/TR/2001/REC-SVG-20010904/DTD/svg10.dtd">
<svg version="1.0" xmlns="http://www.w3.org/2000/svg"
 width="50.000000pt" height="50.000000pt" viewBox="0 0 50.000000 50.000000"
 preserveAspectRatio="xMidYMid meet">

<g transform="translate(0.000000,50.000000) scale(0.100000,-0.100000)"
fill="#000000" stroke="none">
<path d="M70 441 c0 -33 -4 -40 -22 -43 -19 -2 -23 -9 -23 -38 l0 -35 55 0 55
0 0 35 c0 29 -4 36 -22 38 -19 3 -23 10 -23 43 0 21 -4 39 -10 39 -5 0 -10
-18 -10 -39z"/>
<path d="M240 336 c0 -142 0 -145 -22 -148 -19 -2 -23 -9 -23 -38 l0 -35 55 0
55 0 0 35 c0 29 -4 36 -22 38 -23 3 -23 6 -23 148 0 89 -4 144 -10 144 -6 0
-10 -55 -10 -144z"/>
<path d="M410 426 c0 -49 -2 -55 -22 -58 -19 -2 -23 -9 -23 -38 l0 -35 55 0
55 0 0 35 c0 29 -4 36 -22 38 -21 3 -23 9 -23 58 0 30 -4 54 -10 54 -5 0 -10
-24 -10 -54z"/>
<path d="M70 160 c0 -87 4 -140 10 -140 6 0 10 53 10 140 0 87 -4 140 -10 140
-6 0 -10 -53 -10 -140z"/>
<path d="M410 145 c0 -77 4 -125 10 -125 6 0 10 48 10 125 0 77 -4 125 -10
125 -6 0 -10 -48 -10 -125z"/>
<path d="M240 55 c0 -19 5 -35 10 -35 6 0 10 16 10 35 0 19 -4 35 -10 35 -5 0
-10 -16 -10 -35z"/>
</g>
</svg>
